<svg viewBox="0 0 122 60" fill="none" xmlns="http://www.w3.org/2000/svg">
<ellipse cx="30.3054" cy="21.0586" rx="1.27222" ry="1.27222" fill="#0E31E7" style="fill:#0E31E7;fill:color(display-p3 0.0538 0.1904 0.9077);fill-opacity:1;"/>
<circle cx="33.552" cy="18.1758" r="1.59962" transform="rotate(-15.7543 33.552 18.1758)" fill="#0E31E7" style="fill:#0E31E7;fill:color(display-p3 0.0538 0.1904 0.9077);fill-opacity:1;"/>
<ellipse cx="38.0985" cy="16.7093" rx="1.93962" ry="1.93962" transform="rotate(-15.7543 38.0985 16.7093)" fill="#0E31E7" style="fill:#0E31E7;fill:color(display-p3 0.0538 0.1904 0.9077);fill-opacity:1;"/>
<ellipse cx="43.2476" cy="17.2089" rx="2.08893" ry="2.08893" transform="rotate(-15.7543 43.2476 17.2089)" fill="#0E31E7" style="fill:#0E31E7;fill:color(display-p3 0.0538 0.1904 0.9077);fill-opacity:1;"/>
<circle cx="48.2704" cy="19.7073" r="2.21662" transform="rotate(-15.7543 48.2704 19.7073)" fill="#0E31E7" style="fill:#0E31E7;fill:color(display-p3 0.0538 0.1904 0.9077);fill-opacity:1;"/>
<ellipse cx="25.4866" cy="21.9686" rx="1.27222" ry="1.27222" transform="rotate(-32.7273 25.4866 21.9686)" fill="#1280E5" style="fill:#1280E5;fill:color(display-p3 0.0719 0.5008 0.8966);fill-opacity:1;"/>
<circle cx="26.6604" cy="17.7884" r="1.59962" transform="rotate(-48.4815 26.6604 17.7884)" fill="#1280E5" style="fill:#1280E5;fill:color(display-p3 0.0719 0.5008 0.8966);fill-opacity:1;"/>
<ellipse cx="29.6911" cy="14.0971" rx="1.93962" ry="1.93962" transform="rotate(-48.4815 29.6911 14.0971)" fill="#1280E5" style="fill:#1280E5;fill:color(display-p3 0.0719 0.5008 0.8966);fill-opacity:1;"/>
<ellipse cx="34.2925" cy="11.7334" rx="2.08893" ry="2.08893" transform="rotate(-48.4815 34.2925 11.7334)" fill="#1280E5" style="fill:#1280E5;fill:color(display-p3 0.0719 0.5008 0.8966);fill-opacity:1;"/>
<circle cx="39.8692" cy="11.1194" r="2.21662" transform="rotate(-48.4815 39.8692 11.1194)" fill="#1280E5" style="fill:#1280E5;fill:color(display-p3 0.0719 0.5008 0.8966);fill-opacity:1;"/>
<ellipse cx="22.0333" cy="26.0757" rx="1.27222" ry="1.27222" transform="rotate(-65.46 22.0333 26.0757)" fill="#2EBDD0" style="fill:#2EBDD0;fill:color(display-p3 0.1816 0.7400 0.8161);fill-opacity:1;"/>
<circle cx="20.7588" cy="21.9257" r="1.59962" transform="rotate(-81.2143 20.7588 21.9257)" fill="#2EBDD0" style="fill:#2EBDD0;fill:color(display-p3 0.1816 0.7400 0.8161);fill-opacity:1;"/>
<ellipse cx="21.3147" cy="17.1814" rx="1.93962" ry="1.93962" transform="rotate(-81.2143 21.3147 17.1814)" fill="#2EBDD0" style="fill:#2EBDD0;fill:color(display-p3 0.1816 0.7400 0.8161);fill-opacity:1;"/>
<ellipse cx="23.9069" cy="12.7046" rx="2.08893" ry="2.08893" transform="rotate(-81.2143 23.9069 12.7046)" fill="#2EBDD0" style="fill:#2EBDD0;fill:color(display-p3 0.1816 0.7400 0.8161);fill-opacity:1;"/>
<circle cx="28.2655" cy="9.17261" r="2.21662" transform="rotate(-81.2143 28.2655 9.17261)" fill="#2EBDD0" style="fill:#2EBDD0;fill:color(display-p3 0.1816 0.7400 0.8161);fill-opacity:1;"/>
<ellipse cx="21.3807" cy="30.5515" rx="1.27222" ry="1.27222" transform="rotate(-98.19 21.3807 30.5515)" fill="#3EC1A2" style="fill:#3EC1A2;fill:color(display-p3 0.2431 0.7569 0.6336);fill-opacity:1;"/>
<circle cx="18.0647" cy="27.7492" r="1.59962" transform="rotate(-113.944 18.0647 27.7492)" fill="#3EC1A2" style="fill:#3EC1A2;fill:color(display-p3 0.2431 0.7569 0.6336);fill-opacity:1;"/>
<ellipse cx="15.966" cy="23.4589" rx="1.93962" ry="1.93962" transform="rotate(-113.944 15.966 23.4589)" fill="#3EC1A2" style="fill:#3EC1A2;fill:color(display-p3 0.2431 0.7569 0.6336);fill-opacity:1;"/>
<ellipse cx="15.7274" cy="18.2907" rx="2.08893" ry="2.08893" transform="rotate(-113.944 15.7274 18.2907)" fill="#3EC1A2" style="fill:#3EC1A2;fill:color(display-p3 0.2431 0.7569 0.6336);fill-opacity:1;"/>
<circle cx="17.4837" cy="12.9627" r="2.21662" transform="rotate(-113.944 17.4837 12.9627)" fill="#3EC1A2" style="fill:#3EC1A2;fill:color(display-p3 0.2431 0.7569 0.6336);fill-opacity:1;"/>
<ellipse cx="23.1495" cy="35.0071" rx="1.27222" ry="1.27222" transform="rotate(-130.92 23.1495 35.0071)" fill="#3EC15B" style="fill:#3EC15B;fill:color(display-p3 0.2431 0.7569 0.3562);fill-opacity:1;"/>
<circle cx="18.845" cy="34.4428" r="1.59962" transform="rotate(-146.674 18.845 34.4428)" fill="#3EC15B" style="fill:#3EC15B;fill:color(display-p3 0.2431 0.7569 0.3562);fill-opacity:1;"/>
<ellipse cx="14.7594" cy="31.9687" rx="1.93962" ry="1.93962" transform="rotate(-146.674 14.7594 31.9687)" fill="#3EC15B" style="fill:#3EC15B;fill:color(display-p3 0.2431 0.7569 0.3562);fill-opacity:1;"/>
<ellipse cx="11.7636" cy="27.7502" rx="2.08893" ry="2.08893" transform="rotate(-146.674 11.7636 27.7502)" fill="#3EC15B" style="fill:#3EC15B;fill:color(display-p3 0.2431 0.7569 0.3562);fill-opacity:1;"/>
<circle cx="10.3618" cy="22.318" r="2.21662" transform="rotate(-146.674 10.3618 22.318)" fill="#3EC15B" style="fill:#3EC15B;fill:color(display-p3 0.2431 0.7569 0.3562);fill-opacity:1;"/>
<ellipse cx="26.4967" cy="37.6054" rx="1.27222" ry="1.27222" transform="rotate(-163.65 26.4967 37.6054)" fill="#C4C739" style="fill:#C4C739;fill:color(display-p3 0.7675 0.7786 0.2232);fill-opacity:1;"/>
<circle cx="22.5714" cy="39.4578" r="1.59962" transform="rotate(-179.404 22.5714 39.4578)" fill="#C4C739" style="fill:#C4C739;fill:color(display-p3 0.7675 0.7786 0.2232);fill-opacity:1;"/>
<ellipse cx="17.7955" cy="39.5855" rx="1.93962" ry="1.93962" transform="rotate(-179.404 17.7955 39.5855)" fill="#C4C739" style="fill:#C4C739;fill:color(display-p3 0.7675 0.7786 0.2232);fill-opacity:1;"/>
<ellipse cx="12.9954" cy="37.6566" rx="2.08893" ry="2.08893" transform="rotate(-179.404 12.9954 37.6566)" fill="#C4C739" style="fill:#C4C739;fill:color(display-p3 0.7675 0.7786 0.2232);fill-opacity:1;"/>
<circle cx="8.87881" cy="33.8449" r="2.21662" transform="rotate(-179.404 8.87881 33.8449)" fill="#C4C739" style="fill:#C4C739;fill:color(display-p3 0.7675 0.7786 0.2232);fill-opacity:1;"/>
<ellipse cx="31.6765" cy="37.915" rx="1.27222" ry="1.27222" transform="rotate(163.62 31.6765 37.915)" fill="#F4AB1C" style="fill:#F4AB1C;fill:color(display-p3 0.9569 0.6706 0.1098);fill-opacity:1;"/>
<circle cx="29.3747" cy="41.5966" r="1.59962" transform="rotate(147.866 29.3747 41.5966)" fill="#F4AB1C" style="fill:#F4AB1C;fill:color(display-p3 0.9569 0.6706 0.1098);fill-opacity:1;"/>
<ellipse cx="25.4274" cy="44.2855" rx="1.93962" ry="1.93962" transform="rotate(147.866 25.4274 44.2855)" fill="#F4AB1C" style="fill:#F4AB1C;fill:color(display-p3 0.9569 0.6706 0.1098);fill-opacity:1;"/>
<ellipse cx="20.3465" cy="45.2582" rx="2.08893" ry="2.08893" transform="rotate(147.866 20.3465 45.2582)" fill="#F4AB1C" style="fill:#F4AB1C;fill:color(display-p3 0.9569 0.6706 0.1098);fill-opacity:1;"/>
<circle cx="14.8228" cy="44.2778" r="2.21662" transform="rotate(147.866 14.8228 44.2778)" fill="#F4AB1C" style="fill:#F4AB1C;fill:color(display-p3 0.9569 0.6706 0.1098);fill-opacity:1;"/>
<ellipse cx="36.4007" cy="35.323" rx="1.27222" ry="1.27222" transform="rotate(130.89 36.4007 35.323)" fill="#FF6726" style="fill:#FF6726;fill:color(display-p3 1.0000 0.4037 0.1482);fill-opacity:1;"/>
<circle cx="36.4544" cy="39.6644" r="1.59962" transform="rotate(115.136 36.4544 39.6644)" fill="#FF6726" style="fill:#FF6726;fill:color(display-p3 1.0000 0.4037 0.1482);fill-opacity:1;"/>
<ellipse cx="34.5881" cy="44.0605" rx="1.93962" ry="1.93962" transform="rotate(115.136 34.5881 44.0605)" fill="#FF6726" style="fill:#FF6726;fill:color(display-p3 1.0000 0.4037 0.1482);fill-opacity:1;"/>
<ellipse cx="30.8388" cy="47.6264" rx="2.08893" ry="2.08893" transform="rotate(115.136 30.8388 47.6264)" fill="#FF6726" style="fill:#FF6726;fill:color(display-p3 1.0000 0.4037 0.1482);fill-opacity:1;"/>
<circle cx="25.6611" cy="49.7883" r="2.21662" transform="rotate(115.136 25.6611 49.7883)" fill="#FF6726" style="fill:#FF6726;fill:color(display-p3 1.0000 0.4037 0.1482);fill-opacity:1;"/>
<ellipse cx="38.48" cy="31.2069" rx="1.27222" ry="1.27222" transform="rotate(98.16 38.48 31.2069)" fill="#E23A77" style="fill:#E23A77;fill:color(display-p3 0.8872 0.2289 0.4659);fill-opacity:1;"/>
<circle cx="40.8719" cy="34.8295" r="1.59962" transform="rotate(82.4057 40.8719 34.8295)" fill="#E23A77" style="fill:#E23A77;fill:color(display-p3 0.8872 0.2289 0.4659);fill-opacity:1;"/>
<ellipse cx="41.6794" cy="39.5371" rx="1.93962" ry="1.93962" transform="rotate(82.4057 41.6794 39.5371)" fill="#E23A77" style="fill:#E23A77;fill:color(display-p3 0.8872 0.2289 0.4659);fill-opacity:1;"/>
<ellipse cx="40.4535" cy="44.5637" rx="2.08893" ry="2.08893" transform="rotate(82.4057 40.4535 44.5637)" fill="#E23A77" style="fill:#E23A77;fill:color(display-p3 0.8872 0.2289 0.4659);fill-opacity:1;"/>
<circle cx="37.2676" cy="49.1815" r="2.21662" transform="rotate(82.4057 37.2676 49.1815)" fill="#E23A77" style="fill:#E23A77;fill:color(display-p3 0.8872 0.2289 0.4659);fill-opacity:1;"/>
<ellipse cx="37.9286" cy="26.2683" rx="1.27222" ry="1.27222" transform="rotate(65.43 37.9286 26.2683)" fill="#902687" style="fill:#902687;fill:color(display-p3 0.5647 0.1490 0.5294);fill-opacity:1;"/>
<circle cx="41.8996" cy="28.0215" r="1.59962" transform="rotate(49.6757 41.8996 28.0215)" fill="#902687" style="fill:#902687;fill:color(display-p3 0.5647 0.1490 0.5294);fill-opacity:1;"/>
<ellipse cx="45.1241" cy="31.5459" rx="1.93962" ry="1.93962" transform="rotate(49.6757 45.1241 31.5459)" fill="#902687" style="fill:#902687;fill:color(display-p3 0.5647 0.1490 0.5294);fill-opacity:1;"/>
<ellipse cx="46.81" cy="36.4368" rx="2.08893" ry="2.08893" transform="rotate(49.6757 46.81 36.4368)" fill="#902687" style="fill:#902687;fill:color(display-p3 0.5647 0.1490 0.5294);fill-opacity:1;"/>
<circle cx="46.6273" cy="42.0443" r="2.21662" transform="rotate(49.6757 46.6273 42.0443)" fill="#902687" style="fill:#902687;fill:color(display-p3 0.5647 0.1490 0.5294);fill-opacity:1;"/>
<ellipse cx="34.8325" cy="22.69" rx="1.27222" ry="1.27222" transform="rotate(32.7 34.8325 22.69)" fill="#5600DA" style="fill:#5600DA;fill:color(display-p3 0.3389 0.0000 0.8565);fill-opacity:1;"/>
<circle cx="39.1225" cy="22.0176" r="1.59962" transform="rotate(16.9457 39.1225 22.0176)" fill="#5600DA" style="fill:#5600DA;fill:color(display-p3 0.3389 0.0000 0.8565);fill-opacity:1;"/>
<ellipse cx="43.7393" cy="23.2393" rx="1.93962" ry="1.93962" transform="rotate(16.9457 43.7393 23.2393)" fill="#5600DA" style="fill:#5600DA;fill:color(display-p3 0.3389 0.0000 0.8565);fill-opacity:1;"/>
<ellipse cx="47.8034" cy="26.4418" rx="2.08893" ry="2.08893" transform="rotate(16.9457 47.8034 26.4418)" fill="#5600DA" style="fill:#5600DA;fill:color(display-p3 0.3389 0.0000 0.8565);fill-opacity:1;"/>
<circle cx="50.6813" cy="31.2579" r="2.21662" transform="rotate(16.9457 50.6813 31.2579)" fill="#5600DA" style="fill:#5600DA;fill:color(display-p3 0.3389 0.0000 0.8565);fill-opacity:1;"/>
<path d="M115.999 20.6936V33.9998H111.758V24.0599H106.881V33.9998H102.666V24.0599H100.758V20.6936H102.666V19.6599C102.666 16.5322 104.813 14.5442 108.074 14.5442C108.895 14.5442 109.717 14.7032 110.486 14.9948L109.717 18.3346C109.346 18.2551 108.975 18.1756 108.657 18.1756C107.596 18.1756 106.881 18.7852 106.881 19.8454V20.6936H115.999Z" fill="#202735" style="fill:#202735;fill:color(display-p3 0.1238 0.1519 0.2065);fill-opacity:1;"/>
<path d="M92.6747 14.9153V33.9998H88.4337V32.9395C87.4 33.8673 86.0216 34.3974 84.2987 34.3974C80.7734 34.3974 77.8047 31.5612 77.8047 27.3467C77.8047 23.1587 80.7734 20.2961 84.2987 20.2961C86.0216 20.2961 87.4 20.8262 88.4337 21.7539V14.9153H92.6747ZM85.1734 30.7925C86.8963 30.7925 88.4337 29.4142 88.4337 27.3467C88.4337 25.3057 86.8963 23.9009 85.1734 23.9009C83.318 23.9009 81.9662 25.3057 81.9662 27.3467C81.9662 29.4142 83.318 30.7925 85.1734 30.7925Z" fill="#202735" style="fill:#202735;fill:color(display-p3 0.1238 0.1519 0.2065);fill-opacity:1;"/>
<path d="M76.4744 27.3466V28.4333H66.7201C67.0647 30.0237 68.1514 31.0044 69.5828 31.0044C70.5635 31.0044 71.7033 30.7659 72.4189 29.4671L76.1828 30.2357C75.043 33.0454 72.631 34.3972 69.5828 34.3972C65.7393 34.3972 62.5586 31.5611 62.5586 27.3466C62.5586 23.1586 65.7393 20.2959 69.6093 20.2959C73.3732 20.2959 76.3949 22.9995 76.4744 27.3466ZM69.6093 23.7417C68.4165 23.7417 67.1972 24.4839 66.7996 25.8357H72.2864C71.8888 24.4044 70.8286 23.7417 69.6093 23.7417Z" fill="#202735" style="fill:#202735;fill:color(display-p3 0.1238 0.1519 0.2065);fill-opacity:1;"/>
<path d="M119.166 29.9297C120.108 29.9297 120.878 30.6487 120.878 31.6503C120.878 32.6432 120.108 33.3622 119.166 33.3622C118.224 33.3622 117.454 32.6432 117.454 31.6503C117.454 30.6487 118.224 29.9297 119.166 29.9297ZM119.166 33.0027C119.911 33.0027 120.51 32.4206 120.51 31.6503C120.51 30.8627 119.911 30.2807 119.166 30.2807C118.438 30.2807 117.831 30.8627 117.831 31.6503C117.831 32.4206 118.438 33.0027 119.166 33.0027ZM119.919 31.3421C119.919 31.5818 119.782 31.7701 119.56 31.8557L119.996 32.3778H119.534L119.14 31.8985H118.926V32.3778H118.533V30.8199H119.286C119.68 30.8199 119.919 31.0339 119.919 31.3421ZM118.926 31.5647H119.277C119.44 31.5647 119.543 31.4791 119.543 31.3507C119.543 31.2308 119.44 31.1538 119.277 31.1538H118.926V31.5647Z" fill="black" style="fill:black;fill-opacity:1;"/>
<path d="M113.113 44.5494V38.6914H116.963V39.8295H114.436V40.8923H116.57V42.0305H114.436V43.4113H116.963V44.5494H113.113Z" fill="#202735" style="fill:#202735;fill:color(display-p3 0.1238 0.1519 0.2065);fill-opacity:1;"/>
<path d="M107.754 44.6499C107.146 44.6499 106.627 44.5216 106.197 44.265C105.768 44.0028 105.438 43.6457 105.21 43.1938C104.987 42.7419 104.875 42.223 104.875 41.6372C104.875 41.0514 104.984 40.5298 105.201 40.0723C105.425 39.6092 105.751 39.2466 106.181 38.9844C106.61 38.7222 107.135 38.5911 107.754 38.5911C108.479 38.5911 109.076 38.7752 109.545 39.1434C110.013 39.506 110.301 40.0221 110.407 40.6916H108.959C108.903 40.4071 108.766 40.1867 108.549 40.0305C108.337 39.8742 108.063 39.7961 107.729 39.7961C107.439 39.7961 107.179 39.8659 106.95 40.0054C106.722 40.1393 106.543 40.3429 106.415 40.6163C106.287 40.8841 106.222 41.2244 106.222 41.6372C106.222 42.0389 106.284 42.3765 106.406 42.6498C106.535 42.9176 106.713 43.1213 106.942 43.2607C107.171 43.3946 107.433 43.4616 107.729 43.4616C108.063 43.4616 108.337 43.3919 108.549 43.2524C108.766 43.1073 108.903 42.9037 108.959 42.6415H110.407C110.301 43.2663 110.013 43.7573 109.545 44.1143C109.076 44.4714 108.479 44.6499 107.754 44.6499Z" fill="#202735" style="fill:#202735;fill:color(display-p3 0.1238 0.1519 0.2065);fill-opacity:1;"/>
<path d="M97.0156 44.5494V38.6914H98.3379L100.84 42.382V38.6914H102.162V44.5494H100.84L98.3379 40.8756V44.5494H97.0156Z" fill="#202735" style="fill:#202735;fill:color(display-p3 0.1238 0.1519 0.2065);fill-opacity:1;"/>
<path d="M88.75 44.5494L90.8756 38.6914H92.3903L94.5243 44.5494H93.1268L92.7167 43.336H90.5409L90.1225 44.5494H88.75ZM90.9091 42.2815H92.3569L91.6204 40.1475L90.9091 42.2815Z" fill="#202735" style="fill:#202735;fill:color(display-p3 0.1238 0.1519 0.2065);fill-opacity:1;"/>
<path d="M84.918 44.5494V38.6914H86.2402V44.5494H84.918Z" fill="#202735" style="fill:#202735;fill:color(display-p3 0.1238 0.1519 0.2065);fill-opacity:1;"/>
<path d="M78.4453 44.5494V38.6914H79.7676V43.4029H82.161V44.5494H78.4453Z" fill="#202735" style="fill:#202735;fill:color(display-p3 0.1238 0.1519 0.2065);fill-opacity:1;"/>
<path d="M71.9844 44.5494V38.6914H73.3066V43.4029H75.7V44.5494H71.9844Z" fill="#202735" style="fill:#202735;fill:color(display-p3 0.1238 0.1519 0.2065);fill-opacity:1;"/>
<path d="M63.7188 44.5494L65.8444 38.6914H67.3591L69.4931 44.5494H68.0955L67.6855 43.336H65.5096L65.0912 44.5494H63.7188ZM65.8778 42.2815H67.3256L66.5892 40.1475L65.8778 42.2815Z" fill="#202735" style="fill:#202735;fill:color(display-p3 0.1238 0.1519 0.2065);fill-opacity:1;"/>
<path d="M95.2094 28.2458C94.3417 27.2256 94.46 25.7021 95.4755 24.8411C96.491 23.9776 98.0172 24.1073 98.8843 25.1243C99.7527 26.147 99.635 27.6712 98.6188 28.5373C97.602 29.3951 96.0784 29.2673 95.2094 28.2458Z" fill="#1280E5" style="fill:#1280E5;fill:color(display-p3 0.0719 0.5008 0.8966);fill-opacity:1;"/>
<path d="M112.194 18.4026C111.326 17.3824 111.444 15.8589 112.46 14.9979C113.475 14.1344 115.002 14.264 115.869 15.281C116.737 16.3038 116.619 17.8279 115.603 18.694C114.586 19.5518 113.063 19.424 112.194 18.4026Z" fill="#202735" style="fill:#202735;fill:color(display-p3 0.1238 0.1519 0.2065);fill-opacity:1;"/>
</svg>
